<?xml version="1.0" encoding="utf-8"?>
<COLLADA xmlns="http://www.collada.org/2005/11/COLLADASchema" version="1.4.1" xmlns:xsi="http://www.w3.org/2001/XMLSchema-instance">
  <asset>
    <contributor>
      <author>Blender User</author>
      <authoring_tool>Blender 4.0.2 commit date:2023-12-05, commit time:07:41, hash:9be62e85b727</authoring_tool>
    </contributor>
    <created>2026-05-30T17:37:01</created>
    <modified>2026-05-30T17:37:01</modified>
    <unit name="meter" meter="1"/>
    <up_axis>Z_UP</up_axis>
  </asset>
  <library_effects>
    <effect id="hacker_board_black-effect">
      <profile_COMMON>
        <technique sid="common">
          <lambert>
            <emission>
              <color sid="emission">0 0 0 1</color>
            </emission>
            <diffuse>
              <color sid="diffuse">0.0345364 0.0345364 0.0345364 1</color>
            </diffuse>
            <index_of_refraction>
              <float sid="ior">1.45</float>
            </index_of_refraction>
          </lambert>
        </technique>
      </profile_COMMON>
    </effect>
    <effect id="hacker_board_black_002-effect">
      <profile_COMMON>
        <technique sid="common">
          <lambert>
            <emission>
              <color sid="emission">0 0 0 1</color>
            </emission>
            <diffuse>
              <color sid="diffuse">0.0345364 0.0345364 0.0345364 1</color>
            </diffuse>
            <index_of_refraction>
              <float sid="ior">1.45</float>
            </index_of_refraction>
          </lambert>
        </technique>
      </profile_COMMON>
    </effect>
  </library_effects>
  <library_images/>
  <library_materials>
    <material id="hacker_board_black-material" name="hacker_board_black">
      <instance_effect url="#hacker_board_black-effect"/>
    </material>
    <material id="hacker_board_black_002-material" name="hacker_board_black.002">
      <instance_effect url="#hacker_board_black_002-effect"/>
    </material>
  </library_materials>
  <library_geometries>
    <geometry id="Cube_026-mesh" name="Cube.026">
      <mesh>
        <source id="Cube_026-mesh-positions">
          <float_array id="Cube_026-mesh-positions-array" count="72">-0.708921 -3.8 -1.190352 -0.708921 -3.8 0.8096482 -0.708921 -1.8 -1.190352 -0.708921 -1.8 0.8096482 1.291079 -3.8 -1.190352 1.291079 -3.8 0.8096482 1.291079 -1.8 -1.190352 1.291079 -1.8 0.8096482 -0.7089134 1.8 -1.190352 -0.7089134 1.8 0.8096482 -0.7089134 3.8 -1.190352 -0.7089134 3.8 0.8096482 1.291087 1.8 -1.190352 1.291087 1.8 0.8096482 1.291087 3.8 -1.190352 1.291087 3.8 0.8096482 -0.7089134 -4.2 -1.190352 -0.7089134 -4.2 1.463587 -0.7089134 4.2 -1.190352 -0.7089134 4.2 1.463587 0.2910866 -4.2 -1.190352 0.2910866 -4.2 1.463587 0.2910866 4.2 -1.190352 0.2910866 4.2 1.463587</float_array>
          <technique_common>
            <accessor source="#Cube_026-mesh-positions-array" count="24" stride="3">
              <param name="X" type="float"/>
              <param name="Y" type="float"/>
              <param name="Z" type="float"/>
            </accessor>
          </technique_common>
        </source>
        <source id="Cube_026-mesh-normals">
          <float_array id="Cube_026-mesh-normals-array" count="18">-1 0 0 0 1 0 1 0 0 0 -1 0 0 0 -1 0 0 1</float_array>
          <technique_common>
            <accessor source="#Cube_026-mesh-normals-array" count="6" stride="3">
              <param name="X" type="float"/>
              <param name="Y" type="float"/>
              <param name="Z" type="float"/>
            </accessor>
          </technique_common>
        </source>
        <source id="Cube_026-mesh-map-0">
          <float_array id="Cube_026-mesh-map-0-array" count="216">0.625 0 0.375 0.25 0.375 0 0.625 0.25 0.375 0.5 0.375 0.25 0.625 0.5 0.375 0.75 0.375 0.5 0.625 0.75 0.375 1 0.375 0.75 0.375 0.5 0.125 0.75 0.125 0.5 0.875 0.5 0.625 0.75 0.625 0.5 0.625 0 0.375 0.25 0.375 0 0.625 0.25 0.375 0.5 0.375 0.25 0.625 0.5 0.375 0.75 0.375 0.5 0.625 0.75 0.375 1 0.375 0.75 0.375 0.5 0.125 0.75 0.125 0.5 0.875 0.5 0.625 0.75 0.625 0.5 0.625 0 0.375 0.25 0.375 0 0.625 0.25 0.375 0.5 0.375 0.25 0.625 0.5 0.375 0.75 0.375 0.5 0.625 0.75 0.375 1 0.375 0.75 0.375 0.5 0.125 0.75 0.125 0.5 0.875 0.5 0.625 0.75 0.625 0.5 0.625 0 0.625 0.25 0.375 0.25 0.625 0.25 0.625 0.5 0.375 0.5 0.625 0.5 0.625 0.75 0.375 0.75 0.625 0.75 0.625 1 0.375 1 0.375 0.5 0.375 0.75 0.125 0.75 0.875 0.5 0.875 0.75 0.625 0.75 0.625 0 0.625 0.25 0.375 0.25 0.625 0.25 0.625 0.5 0.375 0.5 0.625 0.5 0.625 0.75 0.375 0.75 0.625 0.75 0.625 1 0.375 1 0.375 0.5 0.375 0.75 0.125 0.75 0.875 0.5 0.875 0.75 0.625 0.75 0.625 0 0.625 0.25 0.375 0.25 0.625 0.25 0.625 0.5 0.375 0.5 0.625 0.5 0.625 0.75 0.375 0.75 0.625 0.75 0.625 1 0.375 1 0.375 0.5 0.375 0.75 0.125 0.75 0.875 0.5 0.875 0.75 0.625 0.75</float_array>
          <technique_common>
            <accessor source="#Cube_026-mesh-map-0-array" count="108" stride="2">
              <param name="S" type="float"/>
              <param name="T" type="float"/>
            </accessor>
          </technique_common>
        </source>
        <vertices id="Cube_026-mesh-vertices">
          <input semantic="POSITION" source="#Cube_026-mesh-positions"/>
        </vertices>
        <triangles material="hacker_board_black-material" count="24">
          <input semantic="VERTEX" source="#Cube_026-mesh-vertices" offset="0"/>
          <input semantic="NORMAL" source="#Cube_026-mesh-normals" offset="1"/>
          <input semantic="TEXCOORD" source="#Cube_026-mesh-map-0" offset="2" set="0"/>
          <p>1 0 0 2 0 1 0 0 2 3 1 3 6 1 4 2 1 5 7 2 6 4 2 7 6 2 8 5 3 9 0 3 10 4 3 11 6 4 12 0 4 13 2 4 14 3 5 15 5 5 16 7 5 17 17 0 36 18 0 37 16 0 38 19 1 39 22 1 40 18 1 41 23 2 42 20 2 43 22 2 44 21 3 45 16 3 46 20 3 47 22 4 48 16 4 49 18 4 50 19 5 51 21 5 52 23 5 53 1 0 54 3 0 55 2 0 56 3 1 57 7 1 58 6 1 59 7 2 60 5 2 61 4 2 62 5 3 63 1 3 64 0 3 65 6 4 66 4 4 67 0 4 68 3 5 69 1 5 70 5 5 71 17 0 90 19 0 91 18 0 92 19 1 93 23 1 94 22 1 95 23 2 96 21 2 97 20 2 98 21 3 99 17 3 100 16 3 101 22 4 102 20 4 103 16 4 104 19 5 105 17 5 106 21 5 107</p>
        </triangles>
        <triangles material="hacker_board_black_002-material" count="12">
          <input semantic="VERTEX" source="#Cube_026-mesh-vertices" offset="0"/>
          <input semantic="NORMAL" source="#Cube_026-mesh-normals" offset="1"/>
          <input semantic="TEXCOORD" source="#Cube_026-mesh-map-0" offset="2" set="0"/>
          <p>9 0 18 10 0 19 8 0 20 11 1 21 14 1 22 10 1 23 15 2 24 12 2 25 14 2 26 13 3 27 8 3 28 12 3 29 14 4 30 8 4 31 10 4 32 11 5 33 13 5 34 15 5 35 9 0 72 11 0 73 10 0 74 11 1 75 15 1 76 14 1 77 15 2 78 13 2 79 12 2 80 13 3 81 9 3 82 8 3 83 14 4 84 12 4 85 8 4 86 11 5 87 9 5 88 13 5 89</p>
        </triangles>
      </mesh>
    </geometry>
  </library_geometries>
  <library_visual_scenes>
    <visual_scene id="Scene" name="Scene">
      <node id="Cube_022" name="Cube.022" type="NODE">
        <matrix sid="transform">0.005 0 0 0 0 0.005 0 -9.31323e-10 0 0 0.005 0 0 0 0 1</matrix>
        <instance_geometry url="#Cube_026-mesh" name="Cube.022">
          <bind_material>
            <technique_common>
              <instance_material symbol="hacker_board_black-material" target="#hacker_board_black-material">
                <bind_vertex_input semantic="UVMap" input_semantic="TEXCOORD" input_set="0"/>
              </instance_material>
              <instance_material symbol="hacker_board_black_002-material" target="#hacker_board_black_002-material">
                <bind_vertex_input semantic="UVMap" input_semantic="TEXCOORD" input_set="0"/>
              </instance_material>
            </technique_common>
          </bind_material>
        </instance_geometry>
      </node>
    </visual_scene>
  </library_visual_scenes>
  <scene>
    <instance_visual_scene url="#Scene"/>
  </scene>
</COLLADA>