<?xml version="1.0" encoding="utf-8"?>
<COLLADA xmlns="http://www.collada.org/2005/11/COLLADASchema" version="1.4.1" xmlns:xsi="http://www.w3.org/2001/XMLSchema-instance">
  <asset>
    <contributor>
      <author>Blender User</author>
      <authoring_tool>Blender 4.0.2 commit date:2023-12-05, commit time:07:41, hash:9be62e85b727</authoring_tool>
    </contributor>
    <created>2026-05-30T16:15:18</created>
    <modified>2026-05-30T16:15:18</modified>
    <unit name="meter" meter="1"/>
    <up_axis>Z_UP</up_axis>
  </asset>
  <library_effects>
    <effect id="Material_011-effect">
      <profile_COMMON>
        <technique sid="common">
          <lambert>
            <emission>
              <color sid="emission">0 0 0 1</color>
            </emission>
            <diffuse>
              <color sid="diffuse">0.03498525 0.8002664 0.201156 1</color>
            </diffuse>
            <index_of_refraction>
              <float sid="ior">1.45</float>
            </index_of_refraction>
          </lambert>
        </technique>
      </profile_COMMON>
    </effect>
  </library_effects>
  <library_images/>
  <library_materials>
    <material id="Material_011-material" name="Material.011">
      <instance_effect url="#Material_011-effect"/>
    </material>
  </library_materials>
  <library_geometries>
    <geometry id="Cube_063-mesh" name="Cube.063">
      <mesh>
        <source id="Cube_063-mesh-positions">
          <float_array id="Cube_063-mesh-positions-array" count="348">-4.712338 -1.719468 0.8989579 -4.712338 -1.719468 2.561105 -4.712338 -0.9928493 0.8989579 -4.712338 -0.9928493 2.561105 -0.1628005 -1.719468 0.8989579 -0.1628005 -1.719468 2.561105 -0.1628005 -0.9928493 0.8989579 -0.1628005 -0.9928493 2.561105 -4.712338 -2.857283 0.8989579 -4.712338 -2.857283 2.561105 -4.712338 -2.130664 0.8989579 -4.712338 -2.130664 2.561105 -0.1628005 -2.857283 0.8989579 -0.1628005 -2.857283 2.561105 -0.1628005 -2.130664 0.8989579 -0.1628005 -2.130664 2.561105 -4.712346 1.913627 0.8989584 -4.712346 1.913627 2.561106 -4.712346 2.640245 0.8989584 -4.712346 2.640245 2.561106 -0.1628081 1.913627 0.8989584 -0.1628081 1.913627 2.561106 -0.1628081 2.640245 0.8989584 -0.1628081 2.640245 2.561106 -4.712346 0.775812 0.8989584 -4.712346 0.775812 2.561106 -4.712346 1.502431 0.8989584 -4.712346 1.502431 2.561106 -0.1628081 0.775812 0.8989584 -0.1628081 0.775812 2.561106 -0.1628081 1.502431 0.8989584 -0.1628081 1.502431 2.561106 -4.712346 0.09707927 -6.58591 -4.712346 0.09707927 -4.923762 -4.712346 0.8236982 -6.58591 -4.712346 0.8236982 -4.923762 -0.1628081 0.09707927 -6.58591 -0.1628081 0.09707927 -4.923762 -0.1628081 0.8236982 -6.58591 -0.1628081 0.8236982 -4.923762 -4.712346 -1.040735 -6.58591 -4.712346 -1.040735 -4.923762 -4.712346 -0.3141164 -6.58591 -4.712346 -0.3141164 -4.923762 -0.1628081 -1.040735 -6.58591 -0.1628081 -1.040735 -4.923762 -0.1628081 -0.3141164 -6.58591 -0.1628081 -0.3141164 -4.923762 -4.712346 -1.719468 -4.108371 -4.712346 -1.719468 -2.446223 -4.712346 -0.9928491 -4.108371 -4.712346 -0.9928491 -2.446223 -0.1628081 -1.719468 -4.108371 -0.1628081 -1.719468 -2.446223 -0.1628081 -0.9928491 -4.108371 -0.1628081 -0.9928491 -2.446223 -4.712346 -2.857283 -4.108371 -4.712346 -2.857283 -2.446223 -4.712346 -2.130664 -4.108371 -4.712346 -2.130664 -2.446223 -0.1628081 -2.857283 -4.108371 -0.1628081 -2.857283 -2.446223 -0.1628081 -2.130664 -4.108371 -0.1628081 -2.130664 -2.446223 -0.1628084 0.7629818 -4.277297 -0.1628084 0.7629818 -2.277297 -0.1628084 2.762981 -4.277297 -0.1628084 2.762981 -2.277297 1.837192 0.7629818 -4.277297 1.837192 0.7629818 -2.277297 1.837192 2.762981 -4.277297 1.837192 2.762981 -2.277297 -4.712354 1.913627 -4.108371 -4.712354 1.913627 -2.446223 -4.712354 2.640245 -4.108371 -4.712354 2.640245 -2.446223 -0.1628158 1.913627 -4.108371 -0.1628158 1.913627 -2.446223 -0.1628158 2.640245 -4.108371 -0.1628158 2.640245 -2.446223 -4.712354 0.775812 -4.108371 -4.712354 0.775812 -2.446223 -4.712354 1.502431 -4.108371 -4.712354 1.502431 -2.446223 -0.1628158 0.775812 -4.108371 -0.1628158 0.775812 -2.446223 -0.1628158 1.502431 -4.108371 -0.1628158 1.502431 -2.446223 -0.1628084 -2.976184 -7.245371 -0.1628084 -2.976184 11.23725 -0.1628084 2.869053 -7.245371 -0.1628084 2.869053 11.23725 1.837192 -2.976184 -7.245371 1.837192 -2.976184 11.23725 1.837192 2.869053 -7.245371 1.837192 2.869053 11.23725 -0.1628084 -1.506803 10.97275 -0.1628084 1.399672 10.95736 -0.1628084 -1.506803 11.23725 -0.1628084 1.399672 11.23725 -0.1628084 -1.506803 3.484351 -0.1628084 1.399672 3.484351 1.837192 -1.506803 11.23725 1.837192 1.399672 3.484351 1.837192 1.399672 11.23725 1.837192 -1.506803 3.484351 1.346869 -1.506803 11.23725 1.347833 1.399672 11.23725 -0.1628084 0.6730534 2.013408 -0.1628084 -0.7801846 2.013408 -0.1628084 -0.7801846 -4.530284 -0.1628084 0.6730534 -4.530284 1.837192 -0.7801846 2.013408 1.837192 0.6730534 2.013408 1.837192 -0.7801846 -4.530284 1.837192 0.6730534 -4.530284</float_array>
          <technique_common>
            <accessor source="#Cube_063-mesh-positions-array" count="116" stride="3">
              <param name="X" type="float"/>
              <param name="Y" type="float"/>
              <param name="Z" type="float"/>
            </accessor>
          </technique_common>
        </source>
        <source id="Cube_063-mesh-normals">
          <float_array id="Cube_063-mesh-normals-array" count="51">-1 0 0 0 1 0 1 0 0 0 -1 0 0 0 -1 0 0 1 0 -1 0 0 1 0 -1 0 0 -1 0 0 -1 0 0 -1 0 0 -1 0 0 1 0 0 1 3.83086e-7 0 1 0 0 1 -3.83087e-7 0</float_array>
          <technique_common>
            <accessor source="#Cube_063-mesh-normals-array" count="17" stride="3">
              <param name="X" type="float"/>
              <param name="Y" type="float"/>
              <param name="Z" type="float"/>
            </accessor>
          </technique_common>
        </source>
        <source id="Cube_063-mesh-map-0">
          <float_array id="Cube_063-mesh-map-0-array" count="1128">0.625 0 0.375 0.25 0.375 0 0.625 0.25 0.375 0.5 0.375 0.25 0.625 0.5 0.375 0.75 0.375 0.5 0.625 0.75 0.375 1 0.375 0.75 0.375 0.5 0.125 0.75 0.125 0.5 0.875 0.5 0.625 0.75 0.625 0.5 0.625 0 0.375 0.25 0.375 0 0.625 0.25 0.375 0.5 0.375 0.25 0.625 0.5 0.375 0.75 0.375 0.5 0.625 0.75 0.375 1 0.375 0.75 0.375 0.5 0.125 0.75 0.125 0.5 0.875 0.5 0.625 0.75 0.625 0.5 0.625 0 0.375 0.25 0.375 0 0.625 0.25 0.375 0.5 0.375 0.25 0.625 0.5 0.375 0.75 0.375 0.5 0.625 0.75 0.375 1 0.375 0.75 0.375 0.5 0.125 0.75 0.125 0.5 0.875 0.5 0.625 0.75 0.625 0.5 0.625 0 0.375 0.25 0.375 0 0.625 0.25 0.375 0.5 0.375 0.25 0.625 0.5 0.375 0.75 0.375 0.5 0.625 0.75 0.375 1 0.375 0.75 0.375 0.5 0.125 0.75 0.125 0.5 0.875 0.5 0.625 0.75 0.625 0.5 0.625 0 0.375 0.25 0.375 0 0.625 0.25 0.375 0.5 0.375 0.25 0.625 0.5 0.375 0.75 0.375 0.5 0.625 0.75 0.375 1 0.375 0.75 0.375 0.5 0.125 0.75 0.125 0.5 0.875 0.5 0.625 0.75 0.625 0.5 0.625 0 0.375 0.25 0.375 0 0.625 0.25 0.375 0.5 0.375 0.25 0.625 0.5 0.375 0.75 0.375 0.5 0.625 0.75 0.375 1 0.375 0.75 0.375 0.5 0.125 0.75 0.125 0.5 0.875 0.5 0.625 0.75 0.625 0.5 0.625 0 0.375 0.25 0.375 0 0.625 0.25 0.375 0.5 0.375 0.25 0.625 0.5 0.375 0.75 0.375 0.5 0.625 0.75 0.375 1 0.375 0.75 0.375 0.5 0.125 0.75 0.125 0.5 0.875 0.5 0.625 0.75 0.625 0.5 0.625 0 0.375 0.25 0.375 0 0.625 0.25 0.375 0.5 0.375 0.25 0.625 0.5 0.375 0.75 0.375 0.5 0.625 0.75 0.375 1 0.375 0.75 0.375 0.5 0.125 0.75 0.125 0.5 0.875 0.5 0.625 0.75 0.625 0.5 0.625 0 0.375 0.25 0.375 0 0.625 0.25 0.375 0.5 0.375 0.25 0.625 0.5 0.375 0.75 0.375 0.5 0.625 0.75 0.375 1 0.375 0.75 0.375 0.5 0.125 0.75 0.125 0.5 0.875 0.5 0.625 0.75 0.625 0.5 0.625 0 0.375 0.25 0.375 0 0.625 0.25 0.375 0.5 0.375 0.25 0.625 0.5 0.375 0.75 0.375 0.5 0.625 0.75 0.375 1 0.375 0.75 0.375 0.5 0.125 0.75 0.125 0.5 0.875 0.5 0.625 0.75 0.625 0.5 0.625 0 0.375 0.25 0.375 0 0.625 0.25 0.375 0.5 0.375 0.25 0.625 0.5 0.375 0.75 0.375 0.5 0.625 0.75 0.375 1 0.375 0.75 0.375 0.5 0.125 0.75 0.125 0.5 0.875 0.5 0.625 0.75 0.625 0.5 0.625 0 0.625 0.06284517 0.6214222 0.06284517 0.625 0.25 0.6212142 0.1871548 0.625 0.1871548 0.375 0.25 0.375 0 0.4117249 0.09392255 0.5201326 0.06284517 0.5002362 0.1560774 0.5002362 0.09392255 0.625 0.25 0.375 0.5 0.375 0.25 0.4117249 0.5939227 0.4117249 0.6560775 0.375 0.75 0.5002363 0.5939226 0.5201326 0.6871548 0.5002363 0.6560774 0.625 0.75 0.375 1 0.375 0.75 0.375 0.5 0.125 0.75 0.125 0.5 0.6862903 0.6871548 0.625 0.75 0.625 0.6871548 0.625 0.5628452 0.625 0.5 0.6861698 0.5628451 0.875 0.75 0.6862903 0.6871548 0.875 0.6871548 0.6861698 0.5628451 0.875 0.5 0.875 0.5628452 0.6082194 0.363421 0.5997998 0.3283148 0.375 0.3747934 0.375 0.8752067 0.6002626 0.9216852 0.6082195 0.8866014 0.2033148 0.5 0.2497933 0.75 0.2497934 0.5 0.625 0.3225125 0.375 0.3457517 0.625 0.3457517 0.625 0.9042483 0.375 0.9274876 0.625 0.9274876 0.1975124 0.75 0.2207517 0.5 0.1975124 0.5 0.7792483 0.5 0.8024876 0.75 0.8024876 0.5 0.625 0 0.625 0.25 0.375 0.25 0.625 0.25 0.625 0.5 0.375 0.5 0.625 0.5 0.625 0.75 0.375 0.75 0.625 0.75 0.625 1 0.375 1 0.375 0.5 0.375 0.75 0.125 0.75 0.875 0.5 0.875 0.75 0.625 0.75 0.625 0 0.625 0.25 0.375 0.25 0.625 0.25 0.625 0.5 0.375 0.5 0.625 0.5 0.625 0.75 0.375 0.75 0.625 0.75 0.625 1 0.375 1 0.375 0.5 0.375 0.75 0.125 0.75 0.875 0.5 0.875 0.75 0.625 0.75 0.625 0 0.625 0.25 0.375 0.25 0.625 0.25 0.625 0.5 0.375 0.5 0.625 0.5 0.625 0.75 0.375 0.75 0.625 0.75 0.625 1 0.375 1 0.375 0.5 0.375 0.75 0.125 0.75 0.875 0.5 0.875 0.75 0.625 0.75 0.625 0 0.625 0.25 0.375 0.25 0.625 0.25 0.625 0.5 0.375 0.5 0.625 0.5 0.625 0.75 0.375 0.75 0.625 0.75 0.625 1 0.375 1 0.375 0.5 0.375 0.75 0.125 0.75 0.875 0.5 0.875 0.75 0.625 0.75 0.625 0 0.625 0.25 0.375 0.25 0.625 0.25 0.625 0.5 0.375 0.5 0.625 0.5 0.625 0.75 0.375 0.75 0.625 0.75 0.625 1 0.375 1 0.375 0.5 0.375 0.75 0.125 0.75 0.875 0.5 0.875 0.75 0.625 0.75 0.625 0 0.625 0.25 0.375 0.25 0.625 0.25 0.625 0.5 0.375 0.5 0.625 0.5 0.625 0.75 0.375 0.75 0.625 0.75 0.625 1 0.375 1 0.375 0.5 0.375 0.75 0.125 0.75 0.875 0.5 0.875 0.75 0.625 0.75 0.625 0 0.625 0.25 0.375 0.25 0.625 0.25 0.625 0.5 0.375 0.5 0.625 0.5 0.625 0.75 0.375 0.75 0.625 0.75 0.625 1 0.375 1 0.375 0.5 0.375 0.75 0.125 0.75 0.875 0.5 0.875 0.75 0.625 0.75 0.625 0 0.625 0.25 0.375 0.25 0.625 0.25 0.625 0.5 0.375 0.5 0.625 0.5 0.625 0.75 0.375 0.75 0.625 0.75 0.625 1 0.375 1 0.375 0.5 0.375 0.75 0.125 0.75 0.875 0.5 0.875 0.75 0.625 0.75 0.625 0 0.625 0.25 0.375 0.25 0.625 0.25 0.625 0.5 0.375 0.5 0.625 0.5 0.625 0.75 0.375 0.75 0.625 0.75 0.625 1 0.375 1 0.375 0.5 0.375 0.75 0.125 0.75 0.875 0.5 0.875 0.75 0.625 0.75 0.625 0 0.625 0.25 0.375 0.25 0.625 0.25 0.625 0.5 0.375 0.5 0.625 0.5 0.625 0.75 0.375 0.75 0.625 0.75 0.625 1 0.375 1 0.375 0.5 0.375 0.75 0.125 0.75 0.875 0.5 0.875 0.75 0.625 0.75 0.625 0 0.625 0.25 0.375 0.25 0.625 0.25 0.625 0.5 0.375 0.5 0.625 0.5 0.625 0.75 0.375 0.75 0.625 0.75 0.625 1 0.375 1 0.375 0.5 0.375 0.75 0.125 0.75 0.875 0.5 0.875 0.75 0.625 0.75 0.4117249 0.1560773 0.5002362 0.1560774 0.375 0.25 0.5002362 0.1560774 0.5201324 0.1871547 0.375 0.25 0.5201324 0.1871547 0.6212142 0.1871548 0.625 0.25 0.375 0 0.625 0 0.5201326 0.06284517 0.625 0 0.6214222 0.06284517 0.5201326 0.06284517 0.5201326 0.06284517 0.5002362 0.09392255 0.375 0 0.5002362 0.09392255 0.4117249 0.09392255 0.375 0 0.5201324 0.1871547 0.625 0.25 0.375 0.25 0.4117249 0.09392255 0.4117249 0.1560773 0.375 0.25 0.5201326 0.06284517 0.5201324 0.1871547 0.5002362 0.1560774 0.625 0.25 0.625 0.5 0.375 0.5 0.5201326 0.6871548 0.625 0.6871548 0.625 0.75 0.375 0.5 0.625 0.5 0.5201326 0.5628452 0.625 0.5 0.625 0.5628452 0.5201326 0.5628452 0.5201326 0.5628452 0.5002363 0.5939226 0.375 0.5 0.5002363 0.5939226 0.4117249 0.5939227 0.375 0.5 0.5201326 0.6871548 0.625 0.75 0.375 0.75 0.4117249 0.6560775 0.5002363 0.6560774 0.375 0.75 0.5002363 0.6560774 0.5201326 0.6871548 0.375 0.75 0.375 0.5 0.4117249 0.5939227 0.375 0.75 0.5002363 0.5939226 0.5201326 0.5628452 0.5201326 0.6871548 0.625 0.75 0.625 1 0.375 1 0.375 0.5 0.375 0.75 0.125 0.75 0.875 0.75 0.625 0.75 0.6862903 0.6871548 0.6861698 0.5628451 0.625 0.5 0.875 0.5 0.6082194 0.363421 0.6082195 0.3283148 0.5997998 0.3283148 0.5997998 0.3283148 0.375 0.3283148 0.375 0.3747934 0.375 0.3747934 0.6082194 0.3747934 0.6082194 0.363421 0.6082195 0.8752066 0.375 0.8752067 0.6082195 0.8866014 0.375 0.8752067 0.375 0.9216852 0.6002626 0.9216852 0.6002626 0.9216852 0.6082194 0.9216852 0.6082195 0.8866014 0.2033148 0.5 0.2033148 0.75 0.2497933 0.75 0.625 0.3225125 0.375 0.3225125 0.375 0.3457517 0.625 0.9042483 0.375 0.9042483 0.375 0.9274876 0.1975124 0.75 0.2207517 0.75 0.2207517 0.5 0.7792483 0.5 0.7792484 0.75 0.8024876 0.75</float_array>
          <technique_common>
            <accessor source="#Cube_063-mesh-map-0-array" count="564" stride="2">
              <param name="S" type="float"/>
              <param name="T" type="float"/>
            </accessor>
          </technique_common>
        </source>
        <vertices id="Cube_063-mesh-vertices">
          <input semantic="POSITION" source="#Cube_063-mesh-positions"/>
        </vertices>
        <triangles material="Material_011-material" count="188">
          <input semantic="VERTEX" source="#Cube_063-mesh-vertices" offset="0"/>
          <input semantic="NORMAL" source="#Cube_063-mesh-normals" offset="1"/>
          <input semantic="TEXCOORD" source="#Cube_063-mesh-map-0" offset="2" set="0"/>
          <p>1 0 0 2 0 1 0 0 2 3 1 3 6 1 4 2 1 5 7 2 6 4 2 7 6 2 8 5 3 9 0 3 10 4 3 11 6 4 12 0 4 13 2 4 14 3 5 15 5 5 16 7 5 17 9 0 18 10 0 19 8 0 20 11 1 21 14 1 22 10 1 23 15 2 24 12 2 25 14 2 26 13 3 27 8 3 28 12 3 29 14 4 30 8 4 31 10 4 32 11 5 33 13 5 34 15 5 35 17 0 36 18 0 37 16 0 38 19 1 39 22 1 40 18 1 41 23 2 42 20 2 43 22 2 44 21 3 45 16 3 46 20 3 47 22 4 48 16 4 49 18 4 50 19 5 51 21 5 52 23 5 53 25 0 54 26 0 55 24 0 56 27 1 57 30 1 58 26 1 59 31 2 60 28 2 61 30 2 62 29 3 63 24 3 64 28 3 65 30 4 66 24 4 67 26 4 68 27 5 69 29 5 70 31 5 71 33 0 72 34 0 73 32 0 74 35 1 75 38 1 76 34 1 77 39 2 78 36 2 79 38 2 80 37 3 81 32 3 82 36 3 83 38 4 84 32 4 85 34 4 86 35 5 87 37 5 88 39 5 89 41 0 90 42 0 91 40 0 92 43 1 93 46 1 94 42 1 95 47 2 96 44 2 97 46 2 98 45 3 99 40 3 100 44 3 101 46 4 102 40 4 103 42 4 104 43 5 105 45 5 106 47 5 107 49 0 108 50 0 109 48 0 110 51 1 111 54 1 112 50 1 113 55 2 114 52 2 115 54 2 116 53 3 117 48 3 118 52 3 119 54 4 120 48 4 121 50 4 122 51 5 123 53 5 124 55 5 125 57 0 126 58 0 127 56 0 128 59 1 129 62 1 130 58 1 131 63 2 132 60 2 133 62 2 134 61 3 135 56 3 136 60 3 137 62 4 138 56 4 139 58 4 140 59 5 141 61 5 142 63 5 143 65 0 144 66 0 145 64 0 146 67 1 147 70 1 148 66 1 149 71 2 150 68 2 151 70 2 152 69 3 153 64 3 154 68 3 155 70 4 156 64 4 157 66 4 158 67 5 159 69 5 160 71 5 161 73 0 162 74 0 163 72 0 164 75 1 165 78 1 166 74 1 167 79 2 168 76 2 169 78 2 170 77 3 171 72 3 172 76 3 173 78 4 174 72 4 175 74 4 176 75 5 177 77 5 178 79 5 179 81 0 180 82 0 181 80 0 182 83 1 183 86 1 184 82 1 185 87 2 186 84 2 187 86 2 188 85 3 189 80 3 190 84 3 191 86 4 192 80 4 193 82 4 194 83 5 195 85 5 196 87 5 197 89 0 198 98 0 199 96 0 200 91 0 201 97 0 202 99 0 203 90 0 204 88 0 205 110 0 206 100 0 207 108 0 208 109 0 209 91 1 210 94 1 211 90 1 212 115 2 213 114 2 214 92 2 215 113 2 216 105 2 217 112 2 218 93 3 219 88 3 220 92 3 221 94 4 222 88 4 223 90 4 224 106 5 225 93 5 226 102 5 227 104 5 228 95 5 229 107 5 230 89 5 231 106 5 232 98 5 233 107 5 234 91 5 235 99 5 236 107 6 237 97 6 238 103 6 239 105 7 240 96 7 241 106 7 242 101 5 243 105 5 244 103 5 245 108 3 246 115 3 247 113 3 248 112 1 249 110 1 250 109 1 251 110 5 252 115 5 253 111 5 254 113 4 255 109 4 256 108 4 257 1 0 258 3 0 259 2 0 260 3 1 261 7 1 262 6 1 263 7 2 264 5 2 265 4 2 266 5 3 267 1 3 268 0 3 269 6 4 270 4 4 271 0 4 272 3 5 273 1 5 274 5 5 275 9 0 276 11 0 277 10 0 278 11 1 279 15 1 280 14 1 281 15 2 282 13 2 283 12 2 284 13 3 285 9 3 286 8 3 287 14 4 288 12 4 289 8 4 290 11 5 291 9 5 292 13 5 293 17 0 294 19 0 295 18 0 296 19 1 297 23 1 298 22 1 299 23 2 300 21 2 301 20 2 302 21 3 303 17 3 304 16 3 305 22 4 306 20 4 307 16 4 308 19 5 309 17 5 310 21 5 311 25 0 312 27 0 313 26 0 314 27 1 315 31 1 316 30 1 317 31 2 318 29 2 319 28 2 320 29 3 321 25 3 322 24 3 323 30 4 324 28 4 325 24 4 326 27 5 327 25 5 328 29 5 329 33 0 330 35 0 331 34 0 332 35 1 333 39 1 334 38 1 335 39 2 336 37 2 337 36 2 338 37 3 339 33 3 340 32 3 341 38 4 342 36 4 343 32 4 344 35 5 345 33 5 346 37 5 347 41 0 348 43 0 349 42 0 350 43 1 351 47 1 352 46 1 353 47 2 354 45 2 355 44 2 356 45 3 357 41 3 358 40 3 359 46 4 360 44 4 361 40 4 362 43 5 363 41 5 364 45 5 365 49 0 366 51 0 367 50 0 368 51 1 369 55 1 370 54 1 371 55 2 372 53 2 373 52 2 374 53 3 375 49 3 376 48 3 377 54 4 378 52 4 379 48 4 380 51 5 381 49 5 382 53 5 383 57 0 384 59 0 385 58 0 386 59 1 387 63 1 388 62 1 389 63 2 390 61 2 391 60 2 392 61 3 393 57 3 394 56 3 395 62 4 396 60 4 397 56 4 398 59 5 399 57 5 400 61 5 401 65 0 402 67 0 403 66 0 404 67 1 405 71 1 406 70 1 407 71 2 408 69 2 409 68 2 410 69 3 411 65 3 412 64 3 413 70 4 414 68 4 415 64 4 416 67 5 417 65 5 418 69 5 419 73 0 420 75 0 421 74 0 422 75 1 423 79 1 424 78 1 425 79 2 426 77 2 427 76 2 428 77 3 429 73 3 430 72 3 431 78 4 432 76 4 433 72 4 434 75 5 435 73 5 436 77 5 437 81 0 438 83 0 439 82 0 440 83 1 441 87 1 442 86 1 443 87 2 444 85 2 445 84 2 446 85 3 447 81 3 448 80 3 449 86 4 450 84 4 451 80 4 452 83 5 453 81 5 454 85 5 455 111 0 456 108 0 457 90 0 458 108 8 459 101 8 460 90 8 461 101 9 462 97 9 463 91 9 464 88 10 465 89 10 466 100 10 467 89 0 468 96 0 469 100 0 470 100 11 471 109 11 472 88 11 473 109 0 474 110 0 475 88 0 476 101 12 477 91 12 478 90 12 479 110 0 480 111 0 481 90 0 482 100 0 483 101 0 484 108 0 485 91 1 486 95 1 487 94 1 488 105 2 489 102 2 490 93 2 491 94 13 492 95 13 493 103 13 494 95 2 495 104 2 496 103 2 497 103 14 498 113 14 499 94 14 500 113 15 501 115 15 502 94 15 503 105 2 504 93 2 505 92 2 506 114 2 507 112 2 508 92 2 509 112 16 510 105 16 511 92 16 512 94 2 513 115 2 514 92 2 515 113 2 516 103 2 517 105 2 518 93 3 519 89 3 520 88 3 521 94 4 522 92 4 523 88 4 524 89 5 525 93 5 526 106 5 527 107 5 528 95 5 529 91 5 530 107 3 531 99 3 532 97 3 533 97 3 534 101 3 535 103 3 536 103 3 537 104 3 538 107 3 539 102 1 540 105 1 541 106 1 542 105 1 543 100 1 544 96 1 545 96 1 546 98 1 547 106 1 548 101 5 549 100 5 550 105 5 551 108 3 552 111 3 553 115 3 554 112 1 555 114 1 556 110 1 557 110 5 558 114 5 559 115 5 560 113 4 561 112 4 562 109 4 563</p>
        </triangles>
      </mesh>
    </geometry>
  </library_geometries>
  <library_visual_scenes>
    <visual_scene id="Scene" name="Scene">
      <node id="Cube_007" name="Cube.007" type="NODE">
        <matrix sid="transform">0.004647855 0 0 0 0 0.01376237 0 0 0 0 0.006016313 0 0 0 0 1</matrix>
        <instance_geometry url="#Cube_063-mesh" name="Cube.007">
          <bind_material>
            <technique_common>
              <instance_material symbol="Material_011-material" target="#Material_011-material">
                <bind_vertex_input semantic="UVMap" input_semantic="TEXCOORD" input_set="0"/>
              </instance_material>
            </technique_common>
          </bind_material>
        </instance_geometry>
      </node>
    </visual_scene>
  </library_visual_scenes>
  <scene>
    <instance_visual_scene url="#Scene"/>
  </scene>
</COLLADA>